<mxfile host="app.diagrams.net" modified="2021-07-06T16:31:02.367Z" agent="5.0 (Windows NT 10.0; Win64; x64) AppleWebKit/537.36 (KHTML, like Gecko) Chrome/90.0.4430.93 Safari/537.36" etag="Unc2uq-VUn-yGVnpkuzG" version="14.8.2" type="github">
  <diagram id="C5RBs43oDa-KdzZeNtuy" name="Page-1">
    <mxGraphModel dx="1420" dy="802" grid="1" gridSize="10" guides="1" tooltips="1" connect="1" arrows="1" fold="1" page="1" pageScale="1" pageWidth="827" pageHeight="1169" math="0" shadow="0">
      <root>
        <mxCell id="WIyWlLk6GJQsqaUBKTNV-0" />
        <mxCell id="WIyWlLk6GJQsqaUBKTNV-1" parent="WIyWlLk6GJQsqaUBKTNV-0" />
        <mxCell id="oA3Qf30vgab9Y3hViKtb-0" value="RootView" style="rounded=1;whiteSpace=wrap;html=1;" vertex="1" parent="WIyWlLk6GJQsqaUBKTNV-1">
          <mxGeometry x="350" y="170" width="106" height="50" as="geometry" />
        </mxCell>
        <mxCell id="oA3Qf30vgab9Y3hViKtb-1" value="" style="endArrow=classic;html=1;entryX=0.5;entryY=0;entryDx=0;entryDy=0;" edge="1" parent="WIyWlLk6GJQsqaUBKTNV-1" target="oA3Qf30vgab9Y3hViKtb-0">
          <mxGeometry width="50" height="50" relative="1" as="geometry">
            <mxPoint x="403" y="110" as="sourcePoint" />
            <mxPoint x="436" y="390" as="targetPoint" />
          </mxGeometry>
        </mxCell>
        <mxCell id="oA3Qf30vgab9Y3hViKtb-2" value="触摸事件" style="text;html=1;align=center;verticalAlign=middle;resizable=0;points=[];autosize=1;strokeColor=none;" vertex="1" parent="WIyWlLk6GJQsqaUBKTNV-1">
          <mxGeometry x="400" y="130" width="60" height="20" as="geometry" />
        </mxCell>
        <mxCell id="oA3Qf30vgab9Y3hViKtb-4" value="dispatchTouchEvent()" style="rhombus;whiteSpace=wrap;html=1;" vertex="1" parent="WIyWlLk6GJQsqaUBKTNV-1">
          <mxGeometry x="319.5" y="270" width="167" height="80" as="geometry" />
        </mxCell>
        <mxCell id="oA3Qf30vgab9Y3hViKtb-5" value="" style="endArrow=classic;html=1;exitX=0.5;exitY=1;exitDx=0;exitDy=0;entryX=0.5;entryY=0;entryDx=0;entryDy=0;" edge="1" parent="WIyWlLk6GJQsqaUBKTNV-1" source="oA3Qf30vgab9Y3hViKtb-0" target="oA3Qf30vgab9Y3hViKtb-4">
          <mxGeometry width="50" height="50" relative="1" as="geometry">
            <mxPoint x="390" y="440" as="sourcePoint" />
            <mxPoint x="440" y="390" as="targetPoint" />
          </mxGeometry>
        </mxCell>
        <mxCell id="oA3Qf30vgab9Y3hViKtb-6" value="调用" style="text;html=1;align=center;verticalAlign=middle;resizable=0;points=[];autosize=1;strokeColor=none;" vertex="1" parent="WIyWlLk6GJQsqaUBKTNV-1">
          <mxGeometry x="400" y="230" width="40" height="20" as="geometry" />
        </mxCell>
        <mxCell id="oA3Qf30vgab9Y3hViKtb-7" value="不再传递该触摸事件" style="rounded=1;whiteSpace=wrap;html=1;" vertex="1" parent="WIyWlLk6GJQsqaUBKTNV-1">
          <mxGeometry x="190" y="370" width="110" height="40" as="geometry" />
        </mxCell>
        <mxCell id="oA3Qf30vgab9Y3hViKtb-8" value="" style="endArrow=classic;html=1;exitX=0;exitY=0.5;exitDx=0;exitDy=0;entryX=0.5;entryY=0;entryDx=0;entryDy=0;edgeStyle=orthogonalEdgeStyle;" edge="1" parent="WIyWlLk6GJQsqaUBKTNV-1" source="oA3Qf30vgab9Y3hViKtb-4" target="oA3Qf30vgab9Y3hViKtb-7">
          <mxGeometry width="50" height="50" relative="1" as="geometry">
            <mxPoint x="390" y="430" as="sourcePoint" />
            <mxPoint x="440" y="380" as="targetPoint" />
          </mxGeometry>
        </mxCell>
        <mxCell id="oA3Qf30vgab9Y3hViKtb-9" value="true" style="text;html=1;align=center;verticalAlign=middle;resizable=0;points=[];autosize=1;strokeColor=none;" vertex="1" parent="WIyWlLk6GJQsqaUBKTNV-1">
          <mxGeometry x="250" y="280" width="40" height="20" as="geometry" />
        </mxCell>
        <mxCell id="oA3Qf30vgab9Y3hViKtb-11" value="onInterceptTouchEvent" style="rounded=1;whiteSpace=wrap;html=1;" vertex="1" parent="WIyWlLk6GJQsqaUBKTNV-1">
          <mxGeometry x="510" y="370" width="140" height="40" as="geometry" />
        </mxCell>
        <mxCell id="oA3Qf30vgab9Y3hViKtb-12" value="" style="endArrow=classic;html=1;exitX=1;exitY=0.5;exitDx=0;exitDy=0;entryX=0.5;entryY=0;entryDx=0;entryDy=0;edgeStyle=orthogonalEdgeStyle;" edge="1" parent="WIyWlLk6GJQsqaUBKTNV-1" source="oA3Qf30vgab9Y3hViKtb-4" target="oA3Qf30vgab9Y3hViKtb-11">
          <mxGeometry width="50" height="50" relative="1" as="geometry">
            <mxPoint x="390" y="440" as="sourcePoint" />
            <mxPoint x="440" y="390" as="targetPoint" />
          </mxGeometry>
        </mxCell>
        <mxCell id="oA3Qf30vgab9Y3hViKtb-13" value="false" style="text;html=1;align=center;verticalAlign=middle;resizable=0;points=[];autosize=1;strokeColor=none;" vertex="1" parent="WIyWlLk6GJQsqaUBKTNV-1">
          <mxGeometry x="540" y="280" width="40" height="20" as="geometry" />
        </mxCell>
        <mxCell id="oA3Qf30vgab9Y3hViKtb-14" value="传递给子View" style="rounded=1;whiteSpace=wrap;html=1;" vertex="1" parent="WIyWlLk6GJQsqaUBKTNV-1">
          <mxGeometry x="690" y="375" width="110" height="30" as="geometry" />
        </mxCell>
        <mxCell id="oA3Qf30vgab9Y3hViKtb-15" value="" style="endArrow=classic;html=1;exitX=1;exitY=0.5;exitDx=0;exitDy=0;entryX=0.5;entryY=0;entryDx=0;entryDy=0;edgeStyle=orthogonalEdgeStyle;" edge="1" parent="WIyWlLk6GJQsqaUBKTNV-1" source="oA3Qf30vgab9Y3hViKtb-4" target="oA3Qf30vgab9Y3hViKtb-14">
          <mxGeometry width="50" height="50" relative="1" as="geometry">
            <mxPoint x="390" y="440" as="sourcePoint" />
            <mxPoint x="440" y="390" as="targetPoint" />
          </mxGeometry>
        </mxCell>
      </root>
    </mxGraphModel>
  </diagram>
</mxfile>
